<svg xmlns="http://www.w3.org/2000/svg" xml:space="preserve" width="440" height="440"><linearGradient id="a" x1="63.835" x2="503.786" y1="282.924" y2="282.924" gradientTransform="translate(-63.8 -62.9)" gradientUnits="userSpaceOnUse"><stop offset="0" style="stop-color:#3972ef"/><stop offset="1" style="stop-color:#9200ff"/></linearGradient><circle cx="220" cy="220" r="220" style="fill:url(#a)"/><path d="M335.8 221.7v-3.3c13.9-4 25.8-14.8 29.8-28 3.7-12.5-.5-24.7-11.7-33.6-15-12-36.1-14.4-55.6-15.1-.7-19.4-3.1-40.6-15.1-55.6-8.9-11.1-21.1-15.4-33.6-11.7-13.1 3.9-24 15.8-28 29.8h-3.3c-4-13.9-14.8-25.8-28-29.8-12.5-3.7-24.7.5-33.6 11.7-12 15-14.4 36.1-15.1 55.6-19.4.8-40.5 3.2-55.6 15.1-11.1 8.9-15.4 21.1-11.7 33.6 3.9 13.1 15.8 24 29.8 28v3.3c-13.9 4-25.8 14.8-29.8 28-3.7 12.5.5 24.7 11.7 33.6 15 12 36.1 14.4 55.6 15.1.8 19.4 3.2 40.5 15.2 55.6 8.9 11.1 21.1 15.4 33.6 11.7 13.1-3.9 24-15.8 28-29.7h3.3c4 13.9 14.8 25.8 28 29.7 12.5 3.7 24.7-.5 33.6-11.7 12-15 14.4-36.1 15.1-55.6 19.4-.8 40.5-3.2 55.6-15.1 11.1-8.9 15.4-21.1 11.7-33.6-4-13.2-16-24.1-29.9-28m-131.6 97.4c-1 11.1-9.2 21.6-19.1 24.6-4.6 1.4-11.2 1.5-17.5-4.8-.7-.7-1.4-1.5-2.1-2.3-9.4-11.9-9.2-32-9.6-48.3l-.1-2.8-1.1-1.1-2.8-.1c-16.3-.5-36.5-.2-48.3-9.6-.9-.7-1.6-1.4-2.3-2.1-6.3-6.3-6.2-12.9-4.8-17.5 3-9.9 13.5-18.1 24.6-19.1 10.7-1 21.3 1.9 32.4 4.9 2.3.6 4.7 1.3 7.1 1.9 9.6 2.4 19.9 5.9 30.9 4.1l1.8 1.8c-1.8 11.1 1.6 21.4 4.1 30.9.6 2.4 1.3 4.8 1.9 7.1 3 11.1 5.9 21.7 4.9 32.4m-69.8-97.5v-3.2c6.4-1.2 12.7-2.9 18.9-4.6 2.7-.7 5.5-1.5 8.2-2.2 5.3-1.4 11.3-2.7 17.4-3.3l4.2-.3c2.1 0 5.4.2 9.2 1.1 1.9.5 3.8 1 5.8 1.7.9.3 1.7.6 2.6.9v16.5c-2.8 1-5.6 1.9-8.3 2.5-3.8.9-7.1 1.1-9.3 1.1-7.5-.3-15-1.9-21.5-3.6-2.7-.7-5.5-1.4-8.2-2.2-6.3-1.5-12.6-3.2-19-4.4m64.9-68.2c-.6 2.3-1.3 4.7-1.9 7.1-2.4 9.6-5.9 19.9-4.1 30.9l-1.8 1.8c-11.1-1.8-21.4 1.6-30.9 4.1-2.4.6-4.8 1.3-7.1 1.9-11.2 3-21.7 5.9-32.4 4.9-11.1-1-21.6-9.2-24.6-19.1-1.4-4.6-1.5-11.2 4.8-17.5.7-.7 1.5-1.4 2.3-2.1 11.9-9.4 32-9.2 48.3-9.6l2.8-.1 1.1-1.1.1-2.8c.5-16.3.2-36.5 9.6-48.3.7-.9 1.4-1.6 2.1-2.3 6.3-6.3 12.9-6.2 17.5-4.8 9.9 3 18.1 13.5 19.1 24.6 1 10.7-1.9 21.2-4.9 32.4m29.1 125.2c-.7 2.7-1.4 5.5-2.2 8.2-1.7 6.2-3.4 12.5-4.6 18.9h-3.2c-1.2-6.4-2.9-12.7-4.6-18.9-.7-2.7-1.5-5.5-2.2-8.2-1.4-5.3-2.7-11.3-3.3-17.4l-.3-4.2c0-2.1.2-5.4 1.1-9.2.5-1.9 1-3.8 1.7-5.8.3-.9.6-1.7.9-2.6h16.5c1 2.8 1.9 5.6 2.5 8.3.9 3.8 1.1 7.1 1.1 9.3-.2 7.6-1.8 15.1-3.4 21.6m2.4-86.5c-.5 1.9-1 3.8-1.7 5.8-.3.9-.6 1.7-.9 2.6h-16.5c-1-2.8-1.9-5.6-2.5-8.3-.9-3.8-1.1-7.1-1.1-9.3.3-7.5 1.9-15 3.6-21.5.7-2.7 1.4-5.5 2.2-8.2 1.7-6.2 3.4-12.5 4.6-18.9h3.2c1.2 6.4 2.9 12.7 4.6 18.9.7 2.7 1.5 5.5 2.2 8.2 1.4 5.3 2.7 11.3 3.3 17.4l.3 4.2c-.2 2-.4 5.4-1.3 9.1m5-71.1c1-11.1 9.2-21.6 19.1-24.6 4.6-1.4 11.2-1.5 17.5 4.8.7.7 1.4 1.5 2.1 2.3 9.4 11.9 9.2 32 9.6 48.3l.1 2.8 1.1 1.1 2.8.1c16.3.5 36.5.2 48.3 9.6.9.7 1.6 1.4 2.3 2.1 6.3 6.3 6.2 12.9 4.8 17.5-3 9.9-13.5 18.1-24.6 19.1-10.7 1-21.3-1.9-32.4-4.9-2.3-.6-4.7-1.3-7.1-1.9-9.6-2.4-19.9-5.9-30.9-4.1l-1.8-1.8c1.8-11.1-1.6-21.4-4.1-30.9-.6-2.4-1.3-4.8-1.9-7.1-3-11.2-5.8-21.7-4.9-32.4m69.8 97.4v3.2c-6.4 1.2-12.7 2.9-18.9 4.6-2.7.7-5.5 1.5-8.2 2.2-5.3 1.4-11.3 2.7-17.4 3.3l-4.2.3c-2.1 0-5.4-.2-9.2-1.1-1.9-.5-3.8-1-5.8-1.7-.9-.3-1.7-.6-2.6-.9v-16.5c2.8-1 5.6-1.9 8.3-2.5 3.8-.9 7.1-1.1 9.3-1.1 7.5.3 15 1.9 21.5 3.6 2.7.7 5.5 1.4 8.2 2.2 6.3 1.5 12.6 3.2 19 4.4m33.3 54.1c-.7.7-1.5 1.4-2.3 2.1-11.9 9.4-32 9.2-48.3 9.6l-2.8.1-1.1 1.1-.1 2.8c-.5 16.3-.2 36.5-9.6 48.3-.7.9-1.4 1.6-2.1 2.3-6.3 6.3-12.9 6.2-17.5 4.8-9.9-3-18.1-13.5-19.1-24.6-1-10.7 1.9-21.3 4.9-32.4.6-2.3 1.3-4.7 1.9-7.1 2.4-9.6 5.9-19.9 4.1-30.9l1.8-1.8c11.1 1.8 21.4-1.6 30.9-4.1 2.4-.6 4.8-1.3 7.1-1.9 11.2-3 21.7-5.9 32.4-4.9 11.1 1 21.6 9.2 24.6 19.1 1.3 4.6 1.5 11.2-4.8 17.5" style="fill:#fff"/></svg>